<?xml version="1.0" standalone="no"?>
<!DOCTYPE svg PUBLIC "-//W3C//DTD SVG 20010904//EN"
 "http://www.w3.org/TR/2001/REC-SVG-20010904/DTD/svg10.dtd">
<svg version="1.0" xmlns="http://www.w3.org/2000/svg"
 width="500.000000pt" height="500.000000pt" viewBox="0 0 500.000000 500.000000"
 preserveAspectRatio="xMidYMid meet">

<g transform="translate(0.000000,500.000000) scale(0.100000,-0.100000)"
fill="#000000" stroke="none">
<path d="M1299 2881 c-103 -9 -144 -37 -213 -144 -48 -75 -54 -89 -58 -149 -3
-59 -9 -74 -51 -138 -27 -39 -52 -83 -58 -96 -13 -35 11 -82 58 -114 31 -21
48 -25 112 -25 65 0 85 5 141 32 36 18 75 40 87 49 21 15 23 14 52 -33 33 -51
41 -52 15 -1 -15 29 -15 59 2 102 4 11 -11 1 -35 -23 -62 -62 -156 -103 -247
-109 -59 -4 -79 -1 -100 13 l-27 18 24 13 c30 15 54 57 46 78 -4 11 -19 16
-47 16 -22 0 -40 3 -40 6 0 9 69 123 97 160 27 37 29 56 7 90 -9 13 -15 27
-13 29 2 2 22 25 44 51 122 142 143 154 267 154 83 0 128 -17 238 -89 162
-106 214 -183 189 -277 -42 -150 -249 -253 -281 -139 -5 17 -6 100 -3 186 6
124 4 162 -8 190 -17 40 -51 74 -66 64 -19 -11 -12 -32 26 -82 42 -54 42 -55
28 -258 -8 -120 -8 -121 18 -150 22 -26 31 -30 75 -29 78 3 166 58 220 139
l29 44 42 -35 c50 -43 55 -31 6 16 -33 32 -34 36 -29 89 4 45 1 62 -15 88 -35
56 -198 181 -309 237 -61 31 -113 37 -223 27z"/>
<path d="M1870 2636 l0 -126 60 0 c76 0 124 20 144 59 31 58 12 146 -35 172
-11 6 -54 13 -95 16 l-74 6 0 -127z m142 57 c12 -11 18 -30 18 -59 0 -34 -5
-47 -26 -63 -15 -12 -37 -21 -50 -21 -23 0 -24 3 -24 80 l0 80 32 0 c17 0 40
-7 50 -17z"/>
<path d="M2196 2752 c-6 -10 -86 -231 -86 -238 0 -2 13 -4 29 -4 23 0 30 6 37
33 9 29 14 32 51 35 39 3 42 1 53 -32 10 -31 16 -36 41 -36 24 0 29 3 25 18
-4 9 -23 64 -44 122 -37 100 -40 105 -69 108 -17 2 -34 -1 -37 -6z m50 -100
c6 -28 4 -32 -15 -32 -22 0 -26 15 -15 58 8 29 21 17 30 -26z"/>
<path d="M2424 2741 c-64 -39 -72 -152 -14 -203 42 -38 119 -40 155 -3 33 32
33 65 2 65 -16 0 -28 -9 -35 -25 -9 -18 -19 -25 -41 -25 -38 0 -61 32 -61 85
0 49 23 85 55 85 24 0 55 -23 55 -41 0 -5 14 -9 30 -9 34 0 34 0 18 35 -24 53
-106 71 -164 36z"/>
<path d="M2640 2635 l0 -125 25 0 c23 0 25 3 25 50 l0 50 55 0 55 0 0 -50 c0
-49 1 -50 30 -50 l31 0 -3 123 -3 122 -25 0 c-23 0 -25 -4 -28 -52 l-3 -53
-55 0 -54 0 0 55 c0 52 -1 55 -25 55 l-25 0 0 -125z"/>
<path d="M2943 2748 c-12 -6 -26 -23 -32 -38 -13 -40 6 -72 57 -90 51 -19 67
-34 59 -54 -8 -20 -51 -21 -67 -1 -16 19 -60 20 -60 0 0 -8 10 -23 22 -35 35
-33 135 -24 160 14 27 40 -11 100 -70 112 -37 7 -57 27 -48 49 8 22 44 19 58
-5 17 -26 58 -27 58 -1 0 46 -83 75 -137 49z"/>
<path d="M3130 2636 l0 -126 30 0 c29 0 30 1 30 50 l0 50 50 0 50 0 0 -50 c0
-49 1 -50 30 -50 l30 0 0 126 0 125 -27 -3 c-26 -3 -28 -7 -31 -55 l-3 -53
-49 0 -49 0 -3 53 c-3 48 -5 52 -30 55 l-28 3 0 -125z"/>
<path d="M3400 2660 c0 -94 2 -103 25 -125 32 -33 120 -36 156 -6 22 18 24 28
27 126 l4 107 -29 -4 c-28 -3 -28 -3 -31 -83 -3 -118 -6 -125 -47 -125 -45 0
-55 23 -55 131 0 78 0 79 -25 79 l-25 0 0 -100z"/>
<path d="M3660 2636 l0 -126 25 0 c25 0 25 1 25 88 l1 87 47 -87 c46 -86 48
-88 85 -88 l37 0 0 125 0 125 -25 0 c-25 0 -25 -1 -26 -92 0 -65 -3 -88 -10
-78 -5 8 -29 49 -52 90 -37 67 -46 75 -74 78 l-33 3 0 -125z"/>
<path d="M3930 2636 l0 -126 60 0 c76 0 124 20 144 59 31 58 12 146 -35 172
-11 6 -54 13 -95 16 l-74 6 0 -127z m142 57 c12 -11 18 -30 18 -59 0 -34 -5
-47 -26 -63 -15 -12 -37 -21 -50 -21 -23 0 -24 3 -24 80 l0 80 32 0 c17 0 40
-7 50 -17z"/>
<path d="M1200 2632 c0 -24 31 -52 57 -52 18 0 53 28 53 42 0 9 -60 28 -86 28
-17 0 -24 -6 -24 -18z"/>
<path d="M1972 2378 c-17 -17 -15 -73 2 -87 8 -7 27 -11 43 -9 59 7 55 108 -5
108 -15 0 -33 -5 -40 -12z m67 -20 c11 -31 -2 -62 -27 -66 -29 -4 -49 36 -33
67 15 28 49 27 60 -1z"/>
<path d="M2101 2333 c1 -40 3 -50 8 -33 5 18 15 26 34 28 24 3 28 7 25 30 -2
22 -9 28 -35 30 l-33 3 1 -58z m57 25 c3 -13 -3 -18 -22 -18 -20 0 -26 5 -26
21 0 15 5 20 22 17 13 -2 24 -11 26 -20z"/>
<path d="M2210 2335 l0 -55 38 1 c36 1 36 2 7 8 -43 9 -45 39 -3 44 l33 4 -33
1 c-26 2 -33 6 -30 19 2 10 16 21 33 24 29 6 29 7 -7 8 l-38 1 0 -55z"/>
<path d="M2322 2333 l1 -58 6 50 7 50 24 -47 c33 -65 50 -63 50 7 0 30 -4 55
-10 55 -5 0 -10 -19 -10 -42 l0 -43 -23 39 c-34 61 -47 58 -45 -11z"/>
<path d="M2516 2375 c-8 -22 0 -34 30 -45 13 -5 24 -14 24 -20 0 -18 -29 -23
-47 -9 -14 12 -16 12 -11 -1 3 -9 17 -15 34 -15 40 0 48 40 10 55 -14 5 -26
16 -26 25 0 18 21 20 39 3 11 -11 13 -10 9 2 -7 22 -54 25 -62 5z"/>
<path d="M2632 2378 c-7 -7 -12 -26 -12 -43 0 -37 15 -55 46 -55 29 0 54 25
54 55 0 45 -58 73 -88 43z m63 -43 c0 -43 -22 -58 -50 -35 -32 27 -10 84 30
78 16 -2 20 -11 20 -43z"/>
<path d="M2764 2340 c1 -49 3 -55 24 -58 37 -5 52 15 51 67 -2 31 -3 36 -6 16
-8 -67 -13 -76 -36 -73 -18 2 -23 11 -28 53 l-6 50 1 -55z"/>
<path d="M2880 2336 c0 -31 5 -56 10 -56 6 0 10 11 10 25 0 16 6 25 15 25 9 0
20 -11 25 -25 14 -37 17 -31 16 28 l-1 52 -37 3 -38 3 0 -55z m63 30 c7 -18
-1 -26 -25 -26 -11 0 -18 7 -18 20 0 23 35 28 43 6z"/>
<path d="M3006 2375 c-21 -21 -21 -59 0 -80 22 -22 68 -16 72 10 4 19 3 19
-10 1 -8 -10 -23 -17 -34 -14 -15 2 -19 12 -19 43 0 31 4 41 19 43 11 3 26 -4
34 -14 13 -18 14 -18 10 1 -4 26 -50 32 -72 10z"/>
<path d="M3130 2335 l0 -55 38 2 c36 1 36 1 5 5 -43 6 -47 40 -5 46 l27 4 -27
2 c-21 1 -28 6 -28 20 0 15 8 21 33 24 31 4 31 4 -5 5 l-38 2 0 -55z"/>
<path d="M3292 2333 l1 -58 6 45 7 45 14 -43 c16 -49 29 -50 46 -1 l12 34 1
-37 c1 -60 21 -44 21 17 0 70 -21 74 -41 8 l-15 -48 -15 44 c-23 67 -39 64
-37 -6z"/>
<path d="M3470 2386 c0 -3 -9 -28 -20 -56 -11 -27 -16 -50 -11 -50 5 0 11 9
14 20 3 12 14 20 25 20 12 0 23 -9 27 -20 3 -11 10 -20 15 -20 13 0 -24 103
-38 108 -7 2 -12 1 -12 -2z m18 -55 c-15 -5 -21 7 -13 26 7 17 8 17 15 -2 4
-11 3 -22 -2 -24z"/>
<path d="M3563 2335 c0 -33 2 -45 4 -27 2 18 2 45 0 60 -2 15 -4 0 -4 -33z"/>
<path d="M3622 2338 l-2 -58 38 1 c36 1 36 2 7 8 -27 6 -31 10 -36 56 l-6 50
-1 -57z"/>
<path d="M3730 2335 l0 -55 38 2 c36 1 36 1 5 5 -24 3 -33 9 -33 23 0 14 9 20
33 23 l32 4 -32 1 c-25 2 -33 7 -33 21 0 15 8 21 33 24 31 4 31 4 -5 5 l-38 2
0 -55z"/>
<path d="M3841 2333 c1 -32 4 -46 6 -30 6 36 40 38 49 2 3 -14 10 -25 15 -25
5 0 4 12 -1 26 -7 19 -7 31 1 40 17 20 -6 44 -42 44 -29 0 -29 0 -28 -57z m57
25 c3 -13 -3 -18 -22 -18 -20 0 -26 5 -26 21 0 15 5 20 22 17 13 -2 24 -11 26
-20z"/>
<path d="M2448 2323 c6 -2 18 -2 25 0 6 3 1 5 -13 5 -14 0 -19 -2 -12 -5z"/>
</g>
</svg>
